<?xml version="1.0" encoding="utf-8"?>
<!-- Generator: Adobe Illustrator 24.0.2, SVG Export Plug-In . SVG Version: 6.00 Build 0)  -->
<svg version="1.1" id="Capa_1" xmlns="http://www.w3.org/2000/svg" xmlns:xlink="http://www.w3.org/1999/xlink" x="0px" y="0px"
	 viewBox="0 0 1000 1100" style="enable-background:new 0 0 1000 1100;" xml:space="preserve">
<style type="text/css">
	.st0{fill:none;stroke:#162447;stroke-width:50;stroke-miterlimit:10;}
	.st2{fill:#162447;}
	.st3{fill:none;stroke:#162447;stroke-width:40;stroke-miterlimit:10;}
	.st4{fill:#991B30;}
</style>
<g>
	<g id="nopal_grande">
		<path class="st0" d="M241.3,595.6l55.9-230.4c0.7-2.9,2.7-5.3,5.3-6.6l193.8-94.2c2.8-1.4,6.1-1.3,8.8,0l189,94.1
			c2.6,1.3,4.5,3.6,5.2,6.4l60.8,230.6c0.6,2.2,0.4,4.6-0.6,6.7L602.1,948.9H396.9L241.9,602C241,600,240.8,597.7,241.3,595.6z"/>
	</g>
	<g id="base">
		<path class="st1" d="M277.2,1027l0.3-0.3C277.4,1026.8,277.3,1026.9,277.2,1027L277.2,1027z"/>
		<path class="st1" d="M312.8,1062.1l-0.3,0.3l0,0C312.6,1062.3,312.7,1062.2,312.8,1062.1z"/>
		<path class="st2" d="M729.6,1044.1c0,13.8-11.2,25-25,25c-6.6,0-12.7-2.6-17.1-6.8c-0.2-0.2-0.4-0.3-0.5-0.5L599.2,974l35.4-35.3
			l87.8,87.8c0.2,0.2,0.3,0.3,0.5,0.5C727,1031.4,729.6,1037.4,729.6,1044.1z"/>
		<path class="st2" d="M365.5,938.7l35.4,35.3l-87.8,87.8c-0.1,0.1-0.2,0.2-0.3,0.3c-0.1,0.1-0.2,0.2-0.3,0.2
			c-4.5,4.2-10.5,6.8-17.1,6.8c-13.8,0-25-11.2-25-25c0-6.6,2.6-12.7,6.8-17.2c0.1-0.1,0.2-0.2,0.3-0.3c0.1-0.1,0.2-0.2,0.3-0.3
			L365.5,938.7z"/>
	</g>
	<g id="gia_base">
		<path class="st3" d="M712,98.1l38.3,57.8c1.6,2.4,2.1,5.3,1.3,8l-22.2,85.7c-0.5,2.1-1.7,3.9-3.3,5.2l-89.7,73.4l-76.1-37.9
			l7.1-114.9c0.1-2,0.9-4,2.2-5.6l55.9-70.1c1.8-2.3,4.6-3.7,7.5-3.8l70.4-2.3C706.8,93.5,710,95.2,712,98.1z"/>
	</g>
	<g id="tunas">
		<path class="st4" d="M416.1,187.9l10.5,74.8c0.6,4.3-1.6,8.5-5.5,10.4l-67.9,33.1c-3.9,1.9-8.6,1.1-11.6-2l-52.5-54.4
			c-3-3.1-3.7-7.8-1.6-11.6l35.5-66.7c2-3.8,6.3-5.9,10.6-5.2l74.4,13.1C412.2,180.2,415.5,183.6,416.1,187.9z"/>
		<path class="st4" d="M577.6,69.6l17,25.7c2.4,3.6,2.2,8.4-0.5,11.7l-19.2,24.1c-2.7,3.4-7.3,4.7-11.3,3.1l-28.8-10.8
			c-4.1-1.5-6.7-5.5-6.5-9.8l1.3-30.8c0.2-4.3,3.1-8,7.3-9.2l29.7-8.2C570.8,64.4,575.2,66,577.6,69.6z"/>
	</g>
</g>
</svg>
